<?xml version="1.0" encoding="UTF-8" standalone="no"?>
<!-- Created with matplotlib (https://matplotlib.org/) -->

<svg
   xmlns:dc="http://purl.org/dc/elements/1.1/"
   xmlns:cc="http://creativecommons.org/ns#"
   xmlns:rdf="http://www.w3.org/1999/02/22-rdf-syntax-ns#"
   xmlns:svg="http://www.w3.org/2000/svg"
   xmlns="http://www.w3.org/2000/svg"
   xmlns:xlink="http://www.w3.org/1999/xlink"
   xmlns:sodipodi="http://sodipodi.sourceforge.net/DTD/sodipodi-0.dtd"
   xmlns:inkscape="http://www.inkscape.org/namespaces/inkscape"
   height="360pt"
   version="1.1"
   viewBox="0 0 360 360"
   width="360pt"
   id="svg167"
   sodipodi:docname="6456b7ccd823aedbf2ab6ac5e6342c81-solution-manual.svg"
   inkscape:version="0.92.4 (5da689c313, 2019-01-14)">
  <metadata
     id="metadata171">
    <rdf:RDF>
      <cc:Work
         rdf:about="">
        <dc:format>image/svg+xml</dc:format>
        <dc:type
           rdf:resource="http://purl.org/dc/dcmitype/StillImage" />
        <dc:title></dc:title>
      </cc:Work>
    </rdf:RDF>
  </metadata>
  <sodipodi:namedview
     pagecolor="#ffffff"
     bordercolor="#666666"
     borderopacity="1"
     objecttolerance="10"
     gridtolerance="10"
     guidetolerance="10"
     inkscape:pageopacity="0"
     inkscape:pageshadow="2"
     inkscape:window-width="1037"
     inkscape:window-height="977"
     id="namedview169"
     showgrid="false"
     showguides="true"
     inkscape:guide-bbox="true"
     inkscape:zoom="1.6333333"
     inkscape:cx="240"
     inkscape:cy="240"
     inkscape:window-x="873"
     inkscape:window-y="5"
     inkscape:window-maximized="0"
     inkscape:current-layer="axes_1">
    <sodipodi:guide
       position="132.525,247.5"
       orientation="1,0"
       id="guide173"
       inkscape:locked="false" />
    <sodipodi:guide
       position="149.85,247.5"
       orientation="1,0"
       id="guide175"
       inkscape:locked="false" />
    <sodipodi:guide
       position="167.175,230.175"
       orientation="1,0"
       id="guide177"
       inkscape:locked="false" />
    <sodipodi:guide
       position="184.5,247.5"
       orientation="1,0"
       id="guide179"
       inkscape:locked="false" />
    <sodipodi:guide
       position="201.825,247.5"
       orientation="1,0"
       id="guide181"
       inkscape:locked="false" />
    <sodipodi:guide
       position="219.15,230.175"
       orientation="1,0"
       id="guide183"
       inkscape:locked="false" />
    <sodipodi:guide
       position="236.475,247.5"
       orientation="1,0"
       id="guide185"
       inkscape:locked="false" />
    <sodipodi:guide
       position="253.8,247.5"
       orientation="1,0"
       id="guide187"
       inkscape:locked="false" />
    <sodipodi:guide
       position="253.8,247.5"
       orientation="0,1"
       id="guide189"
       inkscape:locked="false" />
    <sodipodi:guide
       position="236.475,230.175"
       orientation="0,1"
       id="guide191"
       inkscape:locked="false" />
    <sodipodi:guide
       position="236.475,212.85"
       orientation="0,1"
       id="guide193"
       inkscape:locked="false" />
    <sodipodi:guide
       position="236.475,195.525"
       orientation="0,1"
       id="guide195"
       inkscape:locked="false" />
    <sodipodi:guide
       position="236.475,178.2"
       orientation="0,1"
       id="guide197"
       inkscape:locked="false" />
    <sodipodi:guide
       position="253.8,160.875"
       orientation="0,1"
       id="guide199"
       inkscape:locked="false" />
    <sodipodi:guide
       position="236.475,143.55"
       orientation="0,1"
       id="guide201"
       inkscape:locked="false" />
    <sodipodi:guide
       position="253.8,126.225"
       orientation="0,1"
       id="guide203"
       inkscape:locked="false" />
  </sodipodi:namedview>
  <defs
     id="defs4">
    <style
       type="text/css"
       id="style2">
*{stroke-linecap:butt;stroke-linejoin:round;}
  </style>
  </defs>
  <g
     id="figure_1">
    <g
       id="patch_1">
      <path
         d="M 0 360  L 360 360  L 360 0  L 0 0  z "
         style="fill:#ffffff;"
         id="path6" />
    </g>
    <g
       id="axes_1">
      <g
         id="patch_2">
        <path
           d="M 45.9 320.4  L 323.1 320.4  L 323.1 43.2  L 45.9 43.2  z "
           style="fill:#ffffff;"
           id="path9" />
      </g>
      <g
         id="patch_3"
         transform="rotate(180,141.1875,164.475)"
         style="stroke-linecap:butt;stroke-linejoin:round">
        <path
           clip-path="url(#pe6389079ba)"
           d="m 132.525,147.15 h 17.325 v -17.325 h 17.325 L 149.85,112.5 h -17.325 v 34.65"
           style="opacity:0.5;fill:#b22222;stroke:#000000;stroke-linecap:butt;stroke-linejoin:miter"
           id="path12"
           inkscape:connector-curvature="0" />
      </g>
      <g
         id="patch_4"
         transform="translate(34.65,-17.325)"
         style="stroke-linecap:butt;stroke-linejoin:round">
        <path
           clip-path="url(#pe6389079ba)"
           d="m 219.15,199.125 h -17.325 v 34.65 H 219.15 L 236.475,216.45 H 219.15 v -17.325"
           style="opacity:0.5;fill:#008000;stroke:#000000;stroke-linecap:butt;stroke-linejoin:miter"
           id="path15"
           inkscape:connector-curvature="0" />
      </g>
      <g
         id="patch_5"
         transform="translate(51.975,-103.95)"
         style="stroke-linecap:butt;stroke-linejoin:round">
        <path
           clip-path="url(#pe6389079ba)"
           d="m 149.85,216.45 v 17.325 H 184.5 V 216.45 L 167.175,199.125 V 216.45 H 149.85"
           style="opacity:0.5;fill:#0000ff;stroke:#000000;stroke-linecap:butt;stroke-linejoin:miter"
           id="path18"
           inkscape:connector-curvature="0" />
      </g>
      <g
         id="patch_6"
         transform="rotate(-90,219.15,164.475)"
         style="stroke-linecap:butt;stroke-linejoin:round">
        <path
           clip-path="url(#pe6389079ba)"
           d="m 219.15,164.475 v 34.65 h 17.325 V 216.45 L 253.8,199.125 V 181.8 H 236.475 V 164.475 H 219.15"
           style="opacity:0.5;fill:#800080;stroke:#000000;stroke-linecap:butt;stroke-linejoin:miter"
           id="path21"
           inkscape:connector-curvature="0" />
      </g>
      <g
         id="patch_7"
         transform="translate(-80.816327,60.612245)"
         style="stroke-linecap:butt;stroke-linejoin:round">
        <path
           clip-path="url(#pe6389079ba)"
           d="m 184.5,112.5 h -34.65 l 17.325,17.325 V 147.15 H 184.5 V 112.5"
           style="opacity:0.5;fill:#ffff00;stroke:#000000;stroke-linecap:butt;stroke-linejoin:miter"
           id="path24"
           inkscape:connector-curvature="0"
           transform="rotate(-90,220.58954,102.42321)" />
      </g>
      <g
         id="patch_8"
         transform="translate(-103.95001,50.05102)"
         style="stroke-linecap:butt;stroke-linejoin:round">
        <path
           clip-path="url(#pe6389079ba)"
           d="m 201.825,216.45 v -17.325 h -34.65 L 184.5,216.45 h 17.325"
           style="opacity:0.5;fill:#b22222;stroke:#000000;stroke-linecap:butt;stroke-linejoin:miter"
           id="path27"
           inkscape:connector-curvature="0"
           transform="rotate(90,296.15052,174.0995)" />
      </g>
      <g
         id="patch_9"
         transform="translate(34.65,34.65)"
         style="stroke-linecap:butt;stroke-linejoin:round">
        <path
           clip-path="url(#pe6389079ba)"
           d="M 132.525,199.125 H 184.5 l -34.65,-34.65 V 181.8 h -17.325 v 17.325"
           style="opacity:0.5;fill:#008000;stroke:#000000;stroke-linecap:butt;stroke-linejoin:miter"
           id="path30"
           inkscape:connector-curvature="0" />
      </g>
      <g
         id="patch_10"
         transform="rotate(-90,227.8125,190.4625)"
         style="stroke-linecap:butt;stroke-linejoin:round">
        <path
           clip-path="url(#pe6389079ba)"
           d="M 219.15,199.125 V 181.8 h -51.975 l 17.325,17.325 h 34.65"
           style="opacity:0.5;fill:#0000ff;stroke:#000000;stroke-linecap:butt;stroke-linejoin:miter"
           id="path33"
           inkscape:connector-curvature="0" />
      </g>
      <g
         id="patch_11">
        <path
           clip-path="url(#pe6389079ba)"
           d="m 132.525,233.775 h 17.325 v -34.65 h -17.325 v 34.65"
           style="opacity:0.5;fill:#800080;stroke:#000000;stroke-linecap:butt;stroke-linejoin:miter"
           id="path36"
           inkscape:connector-curvature="0"
           transform="rotate(90,210.4875,190.4625)" />
      </g>
      <g
         id="patch_12"
         transform="translate(0,69.3)"
         style="stroke-linecap:butt;stroke-linejoin:round">
        <path
           clip-path="url(#pe6389079ba)"
           d="M 167.175,181.8 V 147.15 L 149.85,164.475 167.175,181.8"
           style="opacity:0.5;fill:#ffff00;stroke:#000000;stroke-linecap:butt;stroke-linejoin:miter"
           id="path39"
           inkscape:connector-curvature="0" />
      </g>
      <g
         id="patch_13"
         transform="translate(51.975,17.325)"
         style="stroke-linecap:butt;stroke-linejoin:round">
        <path
           clip-path="url(#pe6389079ba)"
           d="m 201.825,147.15 h -34.65 V 181.8 H 184.5 v -17.325 h 17.325 V 147.15"
           style="opacity:0.5;fill:#b22222;stroke:#000000;stroke-linecap:butt;stroke-linejoin:miter"
           id="path42"
           inkscape:connector-curvature="0" />
      </g>
      <g
         id="patch_14"
         transform="rotate(90,227.8125,121.1625)"
         style="stroke-linecap:butt;stroke-linejoin:round">
        <path
           clip-path="url(#pe6389079ba)"
           d="M 253.8,147.15 V 112.5 h -17.325 v 34.65 H 253.8"
           style="opacity:0.5;fill:#008000;stroke:#000000;stroke-linecap:butt;stroke-linejoin:miter"
           id="path45"
           inkscape:connector-curvature="0" />
      </g>
      <g
         id="patch_15"
         transform="translate(-51.975,-17.325)"
         style="stroke-linecap:butt;stroke-linejoin:round">
        <path
           clip-path="url(#pe6389079ba)"
           d="M 201.825,181.8 H 219.15 V 164.475 H 253.8 V 147.15 h -51.975 v 34.65"
           style="opacity:0.5;fill:#0000ff;stroke:#000000;stroke-linecap:butt;stroke-linejoin:miter"
           id="path48"
           inkscape:connector-curvature="0" />
      </g>
      <g
         id="patch_16"
         transform="rotate(180,141.1875,147.15)"
         style="stroke-linecap:butt;stroke-linejoin:round">
        <path
           clip-path="url(#pe6389079ba)"
           d="m 132.525,147.15 v 17.325 h 17.325 l 17.325,-17.325 h -34.65"
           style="opacity:0.5;fill:#800080;stroke:#000000;stroke-linecap:butt;stroke-linejoin:miter"
           id="path51"
           inkscape:connector-curvature="0" />
      </g>
      <g
         id="patch_17"
         transform="rotate(-90,219.15,233.775)"
         style="stroke-linecap:butt;stroke-linejoin:round">
        <path
           clip-path="url(#pe6389079ba)"
           d="m 219.15,233.775 h 34.65 v -34.65 l -34.65,34.65"
           style="opacity:0.5;fill:#ffff00;stroke:#000000;stroke-linecap:butt;stroke-linejoin:miter"
           id="path54"
           inkscape:connector-curvature="0" />
      </g>
      <g
         id="patch_18"
         transform="rotate(-90,201.825,181.8)"
         style="stroke-linecap:butt;stroke-linejoin:round">
        <path
           clip-path="url(#pe6389079ba)"
           d="M 236.475,129.825 V 112.5 h -34.65 v 17.325 H 184.5 v 17.325 h 34.65 v -17.325 h 17.325"
           style="opacity:0.5;fill:#b22222;stroke:#000000;stroke-linecap:butt;stroke-linejoin:miter"
           id="path57"
           inkscape:connector-curvature="0" />
      </g>
      <g
         id="matplotlib.axis_1">
        <g
           id="xtick_1">
          <g
             id="line2d_1">
            <defs
               id="defs61">
              <path
                 d="M 0 0  L 0 3.5  "
                 id="m177e7ad800"
                 style="stroke:#000000;stroke-width:0.8;" />
            </defs>
            <g
               id="g65">
              <use
                 style="stroke:#000000;stroke-width:0.8;"
                 x="45.9"
                 xlink:href="#m177e7ad800"
                 y="320.4"
                 id="use63" />
            </g>
          </g>
        </g>
        <g
           id="xtick_2">
          <g
             id="line2d_2">
            <g
               id="g71">
              <use
                 style="stroke:#000000;stroke-width:0.8;"
                 x="80.55"
                 xlink:href="#m177e7ad800"
                 y="320.4"
                 id="use69" />
            </g>
          </g>
        </g>
        <g
           id="xtick_3">
          <g
             id="line2d_3">
            <g
               id="g77">
              <use
                 style="stroke:#000000;stroke-width:0.8;"
                 x="115.2"
                 xlink:href="#m177e7ad800"
                 y="320.4"
                 id="use75" />
            </g>
          </g>
        </g>
        <g
           id="xtick_4">
          <g
             id="line2d_4">
            <g
               id="g83">
              <use
                 style="stroke:#000000;stroke-width:0.8;"
                 x="149.85"
                 xlink:href="#m177e7ad800"
                 y="320.4"
                 id="use81" />
            </g>
          </g>
        </g>
        <g
           id="xtick_5">
          <g
             id="line2d_5">
            <g
               id="g89">
              <use
                 style="stroke:#000000;stroke-width:0.8;"
                 x="184.5"
                 xlink:href="#m177e7ad800"
                 y="320.4"
                 id="use87" />
            </g>
          </g>
        </g>
        <g
           id="xtick_6">
          <g
             id="line2d_6">
            <g
               id="g95">
              <use
                 style="stroke:#000000;stroke-width:0.8;"
                 x="219.15"
                 xlink:href="#m177e7ad800"
                 y="320.4"
                 id="use93" />
            </g>
          </g>
        </g>
        <g
           id="xtick_7">
          <g
             id="line2d_7">
            <g
               id="g101">
              <use
                 style="stroke:#000000;stroke-width:0.8;"
                 x="253.8"
                 xlink:href="#m177e7ad800"
                 y="320.4"
                 id="use99" />
            </g>
          </g>
        </g>
        <g
           id="xtick_8">
          <g
             id="line2d_8">
            <g
               id="g107">
              <use
                 style="stroke:#000000;stroke-width:0.8;"
                 x="288.45"
                 xlink:href="#m177e7ad800"
                 y="320.4"
                 id="use105" />
            </g>
          </g>
        </g>
        <g
           id="xtick_9">
          <g
             id="line2d_9">
            <g
               id="g113">
              <use
                 style="stroke:#000000;stroke-width:0.8;"
                 x="323.1"
                 xlink:href="#m177e7ad800"
                 y="320.4"
                 id="use111" />
            </g>
          </g>
        </g>
      </g>
      <g
         id="matplotlib.axis_2" />
      <g
         id="patch_19">
        <path
           d="M 45.9 320.4  L 45.9 43.2  "
           style="fill:none;stroke:#000000;stroke-linecap:square;stroke-linejoin:miter;stroke-width:0.8;"
           id="path119" />
      </g>
      <g
         id="patch_20">
        <path
           d="M 323.1 320.4  L 323.1 43.2  "
           style="fill:none;stroke:#000000;stroke-linecap:square;stroke-linejoin:miter;stroke-width:0.8;"
           id="path122" />
      </g>
      <g
         id="patch_21">
        <path
           d="M 45.9 320.4  L 323.1 320.4  "
           style="fill:none;stroke:#000000;stroke-linecap:square;stroke-linejoin:miter;stroke-width:0.8;"
           id="path125" />
      </g>
      <g
         id="patch_22">
        <path
           d="M 45.9 43.2  L 323.1 43.2  "
           style="fill:none;stroke:#000000;stroke-linecap:square;stroke-linejoin:miter;stroke-width:0.8;"
           id="path128" />
      </g>
      <g
         id="text_1">
        <!-- FridgeIQ -->
        <defs
           id="defs139">
          <path
             d="M 9.8125 72.90625  L 51.703125 72.90625  L 51.703125 64.59375  L 19.671875 64.59375  L 19.671875 43.109375  L 48.578125 43.109375  L 48.578125 34.8125  L 19.671875 34.8125  L 19.671875 0  L 9.8125 0  z "
             id="DejaVuSans-70" />
          <path
             d="M 41.109375 46.296875  Q 39.59375 47.171875 37.8125 47.578125  Q 36.03125 48 33.890625 48  Q 26.265625 48 22.1875 43.046875  Q 18.109375 38.09375 18.109375 28.8125  L 18.109375 0  L 9.078125 0  L 9.078125 54.6875  L 18.109375 54.6875  L 18.109375 46.1875  Q 20.953125 51.171875 25.484375 53.578125  Q 30.03125 56 36.53125 56  Q 37.453125 56 38.578125 55.875  Q 39.703125 55.765625 41.0625 55.515625  z "
             id="DejaVuSans-114" />
          <path
             d="M 9.421875 54.6875  L 18.40625 54.6875  L 18.40625 0  L 9.421875 0  z M 9.421875 75.984375  L 18.40625 75.984375  L 18.40625 64.59375  L 9.421875 64.59375  z "
             id="DejaVuSans-105" />
          <path
             d="M 45.40625 46.390625  L 45.40625 75.984375  L 54.390625 75.984375  L 54.390625 0  L 45.40625 0  L 45.40625 8.203125  Q 42.578125 3.328125 38.25 0.953125  Q 33.9375 -1.421875 27.875 -1.421875  Q 17.96875 -1.421875 11.734375 6.484375  Q 5.515625 14.40625 5.515625 27.296875  Q 5.515625 40.1875 11.734375 48.09375  Q 17.96875 56 27.875 56  Q 33.9375 56 38.25 53.625  Q 42.578125 51.265625 45.40625 46.390625  z M 14.796875 27.296875  Q 14.796875 17.390625 18.875 11.75  Q 22.953125 6.109375 30.078125 6.109375  Q 37.203125 6.109375 41.296875 11.75  Q 45.40625 17.390625 45.40625 27.296875  Q 45.40625 37.203125 41.296875 42.84375  Q 37.203125 48.484375 30.078125 48.484375  Q 22.953125 48.484375 18.875 42.84375  Q 14.796875 37.203125 14.796875 27.296875  z "
             id="DejaVuSans-100" />
          <path
             d="M 45.40625 27.984375  Q 45.40625 37.75 41.375 43.109375  Q 37.359375 48.484375 30.078125 48.484375  Q 22.859375 48.484375 18.828125 43.109375  Q 14.796875 37.75 14.796875 27.984375  Q 14.796875 18.265625 18.828125 12.890625  Q 22.859375 7.515625 30.078125 7.515625  Q 37.359375 7.515625 41.375 12.890625  Q 45.40625 18.265625 45.40625 27.984375  z M 54.390625 6.78125  Q 54.390625 -7.171875 48.1875 -13.984375  Q 42 -20.796875 29.203125 -20.796875  Q 24.46875 -20.796875 20.265625 -20.09375  Q 16.0625 -19.390625 12.109375 -17.921875  L 12.109375 -9.1875  Q 16.0625 -11.328125 19.921875 -12.34375  Q 23.78125 -13.375 27.78125 -13.375  Q 36.625 -13.375 41.015625 -8.765625  Q 45.40625 -4.15625 45.40625 5.171875  L 45.40625 9.625  Q 42.625 4.78125 38.28125 2.390625  Q 33.9375 0 27.875 0  Q 17.828125 0 11.671875 7.65625  Q 5.515625 15.328125 5.515625 27.984375  Q 5.515625 40.671875 11.671875 48.328125  Q 17.828125 56 27.875 56  Q 33.9375 56 38.28125 53.609375  Q 42.625 51.21875 45.40625 46.390625  L 45.40625 54.6875  L 54.390625 54.6875  z "
             id="DejaVuSans-103" />
          <path
             d="M 56.203125 29.59375  L 56.203125 25.203125  L 14.890625 25.203125  Q 15.484375 15.921875 20.484375 11.0625  Q 25.484375 6.203125 34.421875 6.203125  Q 39.59375 6.203125 44.453125 7.46875  Q 49.3125 8.734375 54.109375 11.28125  L 54.109375 2.78125  Q 49.265625 0.734375 44.1875 -0.34375  Q 39.109375 -1.421875 33.890625 -1.421875  Q 20.796875 -1.421875 13.15625 6.1875  Q 5.515625 13.8125 5.515625 26.8125  Q 5.515625 40.234375 12.765625 48.109375  Q 20.015625 56 32.328125 56  Q 43.359375 56 49.78125 48.890625  Q 56.203125 41.796875 56.203125 29.59375  z M 47.21875 32.234375  Q 47.125 39.59375 43.09375 43.984375  Q 39.0625 48.390625 32.421875 48.390625  Q 24.90625 48.390625 20.390625 44.140625  Q 15.875 39.890625 15.1875 32.171875  z "
             id="DejaVuSans-101" />
          <path
             d="M 9.8125 72.90625  L 19.671875 72.90625  L 19.671875 0  L 9.8125 0  z "
             id="DejaVuSans-73" />
          <path
             d="M 39.40625 66.21875  Q 28.65625 66.21875 22.328125 58.203125  Q 16.015625 50.203125 16.015625 36.375  Q 16.015625 22.609375 22.328125 14.59375  Q 28.65625 6.59375 39.40625 6.59375  Q 50.140625 6.59375 56.421875 14.59375  Q 62.703125 22.609375 62.703125 36.375  Q 62.703125 50.203125 56.421875 58.203125  Q 50.140625 66.21875 39.40625 66.21875  z M 53.21875 1.3125  L 66.21875 -12.890625  L 54.296875 -12.890625  L 43.5 -1.21875  Q 41.890625 -1.3125 41.03125 -1.359375  Q 40.1875 -1.421875 39.40625 -1.421875  Q 24.03125 -1.421875 14.8125 8.859375  Q 5.609375 19.140625 5.609375 36.375  Q 5.609375 53.65625 14.8125 63.9375  Q 24.03125 74.21875 39.40625 74.21875  Q 54.734375 74.21875 63.90625 63.9375  Q 73.09375 53.65625 73.09375 36.375  Q 73.09375 23.6875 67.984375 14.640625  Q 62.890625 5.609375 53.21875 1.3125  z "
             id="DejaVuSans-81" />
        </defs>
        <g
           transform="translate(159.119063 37.2)scale(0.12 -0.12)"
           id="g157">
          <use
             xlink:href="#DejaVuSans-70"
             id="use141" />
          <use
             x="57.410156"
             xlink:href="#DejaVuSans-114"
             id="use143" />
          <use
             x="98.523438"
             xlink:href="#DejaVuSans-105"
             id="use145" />
          <use
             x="126.306641"
             xlink:href="#DejaVuSans-100"
             id="use147" />
          <use
             x="189.783203"
             xlink:href="#DejaVuSans-103"
             id="use149" />
          <use
             x="253.259766"
             xlink:href="#DejaVuSans-101"
             id="use151" />
          <use
             x="314.783203"
             xlink:href="#DejaVuSans-73"
             id="use153" />
          <use
             x="344.275391"
             xlink:href="#DejaVuSans-81"
             id="use155" />
        </g>
      </g>
    </g>
  </g>
  <defs
     id="defs165">
    <clipPath
       id="pe6389079ba">
      <rect
         height="277.2"
         width="277.2"
         x="45.9"
         y="43.2"
         id="rect162" />
    </clipPath>
  </defs>
</svg>
