<?xml version="1.0" encoding="utf-8" standalone="no"?>
<!DOCTYPE svg PUBLIC "-//W3C//DTD SVG 1.1//EN"
  "http://www.w3.org/Graphics/SVG/1.1/DTD/svg11.dtd">
<!-- Created with matplotlib (https://matplotlib.org/) -->
<svg height="360pt" version="1.1" viewBox="0 0 360 360" width="360pt" xmlns="http://www.w3.org/2000/svg" xmlns:xlink="http://www.w3.org/1999/xlink">
 <defs>
  <style type="text/css">
*{stroke-linecap:butt;stroke-linejoin:round;}
  </style>
 </defs>
 <g id="figure_1">
  <g id="patch_1">
   <path d="M 0 360 
L 360 360 
L 360 0 
L 0 0 
z
" style="fill:#ffffff;"/>
  </g>
  <g id="axes_1">
   <g id="patch_2">
    <path d="M 45.9 320.4 
L 323.1 320.4 
L 323.1 43.2 
L 45.9 43.2 
z
" style="fill:#ffffff;"/>
   </g>
   <g id="patch_3">
    <path clip-path="url(#p70cef8964c)" d="M 146 204.9 
L 138.3 197.2 
L 138.3 212.6 
L 146 204.9 
" style="fill:#808080;stroke:#808080;stroke-linejoin:miter;"/>
   </g>
   <g id="patch_4">
    <path clip-path="url(#p70cef8964c)" d="M 146 204.9 
L 153.7 197.2 
L 138.3 197.2 
L 146 204.9 
" style="fill:#808080;stroke:#808080;stroke-linejoin:miter;"/>
   </g>
   <g id="patch_5">
    <path clip-path="url(#p70cef8964c)" d="M 146 204.9 
L 138.3 212.6 
L 153.7 212.6 
L 146 204.9 
" style="fill:#808080;stroke:#808080;stroke-linejoin:miter;"/>
   </g>
   <g id="patch_6">
    <path clip-path="url(#p70cef8964c)" d="M 146 204.9 
L 153.7 197.2 
L 153.7 212.6 
L 146 204.9 
" style="fill:#808080;stroke:#808080;stroke-linejoin:miter;"/>
   </g>
   <g id="patch_7">
    <path clip-path="url(#p70cef8964c)" d="M 130.6 204.9 
L 122.9 197.2 
L 122.9 212.6 
L 130.6 204.9 
" style="fill:#808080;stroke:#808080;stroke-linejoin:miter;"/>
   </g>
   <g id="patch_8">
    <path clip-path="url(#p70cef8964c)" d="M 130.6 204.9 
L 138.3 197.2 
L 122.9 197.2 
L 130.6 204.9 
" style="fill:#808080;stroke:#808080;stroke-linejoin:miter;"/>
   </g>
   <g id="patch_9">
    <path clip-path="url(#p70cef8964c)" d="M 130.6 204.9 
L 122.9 212.6 
L 138.3 212.6 
L 130.6 204.9 
" style="fill:#808080;stroke:#808080;stroke-linejoin:miter;"/>
   </g>
   <g id="patch_10">
    <path clip-path="url(#p70cef8964c)" d="M 130.6 204.9 
L 138.3 197.2 
L 138.3 212.6 
L 130.6 204.9 
" style="fill:#808080;stroke:#808080;stroke-linejoin:miter;"/>
   </g>
   <g id="patch_11">
    <path clip-path="url(#p70cef8964c)" d="M 130.6 189.5 
L 122.9 197.2 
L 138.3 197.2 
L 130.6 189.5 
" style="fill:#808080;stroke:#808080;stroke-linejoin:miter;"/>
   </g>
   <g id="patch_12">
    <path clip-path="url(#p70cef8964c)" d="M 130.6 189.5 
L 138.3 181.8 
L 138.3 197.2 
L 130.6 189.5 
" style="fill:#808080;stroke:#808080;stroke-linejoin:miter;"/>
   </g>
   <g id="patch_13">
    <path clip-path="url(#p70cef8964c)" d="M 146 158.7 
L 153.7 151 
L 153.7 166.4 
L 146 158.7 
" style="fill:#808080;stroke:#808080;stroke-linejoin:miter;"/>
   </g>
   <g id="patch_14">
    <path clip-path="url(#p70cef8964c)" d="M 146 158.7 
L 138.3 166.4 
L 153.7 166.4 
L 146 158.7 
" style="fill:#808080;stroke:#808080;stroke-linejoin:miter;"/>
   </g>
   <g id="patch_15">
    <path clip-path="url(#p70cef8964c)" d="M 146 158.7 
L 153.7 151 
L 138.3 151 
L 146 158.7 
" style="fill:#808080;stroke:#808080;stroke-linejoin:miter;"/>
   </g>
   <g id="patch_16">
    <path clip-path="url(#p70cef8964c)" d="M 146 158.7 
L 138.3 151 
L 138.3 166.4 
L 146 158.7 
" style="fill:#808080;stroke:#808080;stroke-linejoin:miter;"/>
   </g>
   <g id="patch_17">
    <path clip-path="url(#p70cef8964c)" d="M 161.4 158.7 
L 169.1 151 
L 169.1 166.4 
L 161.4 158.7 
" style="fill:#808080;stroke:#808080;stroke-linejoin:miter;"/>
   </g>
   <g id="patch_18">
    <path clip-path="url(#p70cef8964c)" d="M 161.4 158.7 
L 153.7 166.4 
L 169.1 166.4 
L 161.4 158.7 
" style="fill:#808080;stroke:#808080;stroke-linejoin:miter;"/>
   </g>
   <g id="patch_19">
    <path clip-path="url(#p70cef8964c)" d="M 161.4 158.7 
L 169.1 151 
L 153.7 151 
L 161.4 158.7 
" style="fill:#808080;stroke:#808080;stroke-linejoin:miter;"/>
   </g>
   <g id="patch_20">
    <path clip-path="url(#p70cef8964c)" d="M 161.4 158.7 
L 153.7 151 
L 153.7 166.4 
L 161.4 158.7 
" style="fill:#808080;stroke:#808080;stroke-linejoin:miter;"/>
   </g>
   <g id="patch_21">
    <path clip-path="url(#p70cef8964c)" d="M 161.4 143.3 
L 153.7 135.6 
L 153.7 151 
L 161.4 143.3 
" style="fill:#808080;stroke:#808080;stroke-linejoin:miter;"/>
   </g>
   <g id="patch_22">
    <path clip-path="url(#p70cef8964c)" d="M 161.4 143.3 
L 153.7 151 
L 169.1 151 
L 161.4 143.3 
" style="fill:#808080;stroke:#808080;stroke-linejoin:miter;"/>
   </g>
   <g id="patch_23">
    <path clip-path="url(#p70cef8964c)" d="M 176.8 127.9 
L 169.1 120.2 
L 169.1 135.6 
L 176.8 127.9 
" style="fill:#808080;stroke:#808080;stroke-linejoin:miter;"/>
   </g>
   <g id="patch_24">
    <path clip-path="url(#p70cef8964c)" d="M 176.8 127.9 
L 184.5 120.2 
L 169.1 120.2 
L 176.8 127.9 
" style="fill:#808080;stroke:#808080;stroke-linejoin:miter;"/>
   </g>
   <g id="patch_25">
    <path clip-path="url(#p70cef8964c)" d="M 176.8 127.9 
L 169.1 135.6 
L 184.5 135.6 
L 176.8 127.9 
" style="fill:#808080;stroke:#808080;stroke-linejoin:miter;"/>
   </g>
   <g id="patch_26">
    <path clip-path="url(#p70cef8964c)" d="M 176.8 127.9 
L 184.5 120.2 
L 184.5 135.6 
L 176.8 127.9 
" style="fill:#808080;stroke:#808080;stroke-linejoin:miter;"/>
   </g>
   <g id="patch_27">
    <path clip-path="url(#p70cef8964c)" d="M 161.4 127.9 
L 153.7 120.2 
L 153.7 135.6 
L 161.4 127.9 
" style="fill:#808080;stroke:#808080;stroke-linejoin:miter;"/>
   </g>
   <g id="patch_28">
    <path clip-path="url(#p70cef8964c)" d="M 161.4 127.9 
L 169.1 120.2 
L 153.7 120.2 
L 161.4 127.9 
" style="fill:#808080;stroke:#808080;stroke-linejoin:miter;"/>
   </g>
   <g id="patch_29">
    <path clip-path="url(#p70cef8964c)" d="M 161.4 127.9 
L 153.7 135.6 
L 169.1 135.6 
L 161.4 127.9 
" style="fill:#808080;stroke:#808080;stroke-linejoin:miter;"/>
   </g>
   <g id="patch_30">
    <path clip-path="url(#p70cef8964c)" d="M 161.4 127.9 
L 169.1 120.2 
L 169.1 135.6 
L 161.4 127.9 
" style="fill:#808080;stroke:#808080;stroke-linejoin:miter;"/>
   </g>
   <g id="patch_31">
    <path clip-path="url(#p70cef8964c)" d="M 161.4 143.3 
L 169.1 135.6 
L 169.1 151 
L 161.4 143.3 
" style="fill:#808080;stroke:#808080;stroke-linejoin:miter;"/>
   </g>
   <g id="patch_32">
    <path clip-path="url(#p70cef8964c)" d="M 161.4 143.3 
L 169.1 135.6 
L 153.7 135.6 
L 161.4 143.3 
" style="fill:#808080;stroke:#808080;stroke-linejoin:miter;"/>
   </g>
   <g id="patch_33">
    <path clip-path="url(#p70cef8964c)" d="M 192.2 174.1 
L 199.9 166.4 
L 184.5 166.4 
L 192.2 174.1 
" style="fill:#808080;stroke:#808080;stroke-linejoin:miter;"/>
   </g>
   <g id="patch_34">
    <path clip-path="url(#p70cef8964c)" d="M 192.2 174.1 
L 199.9 166.4 
L 199.9 181.8 
L 192.2 174.1 
" style="fill:#808080;stroke:#808080;stroke-linejoin:miter;"/>
   </g>
   <g id="patch_35">
    <path clip-path="url(#p70cef8964c)" d="M 192.2 174.1 
L 184.5 166.4 
L 184.5 181.8 
L 192.2 174.1 
" style="fill:#808080;stroke:#808080;stroke-linejoin:miter;"/>
   </g>
   <g id="patch_36">
    <path clip-path="url(#p70cef8964c)" d="M 192.2 174.1 
L 184.5 181.8 
L 199.9 181.8 
L 192.2 174.1 
" style="fill:#808080;stroke:#808080;stroke-linejoin:miter;"/>
   </g>
   <g id="patch_37">
    <path clip-path="url(#p70cef8964c)" d="M 207.6 174.1 
L 215.3 166.4 
L 199.9 166.4 
L 207.6 174.1 
" style="fill:#808080;stroke:#808080;stroke-linejoin:miter;"/>
   </g>
   <g id="patch_38">
    <path clip-path="url(#p70cef8964c)" d="M 207.6 174.1 
L 215.3 166.4 
L 215.3 181.8 
L 207.6 174.1 
" style="fill:#808080;stroke:#808080;stroke-linejoin:miter;"/>
   </g>
   <g id="patch_39">
    <path clip-path="url(#p70cef8964c)" d="M 207.6 174.1 
L 199.9 166.4 
L 199.9 181.8 
L 207.6 174.1 
" style="fill:#808080;stroke:#808080;stroke-linejoin:miter;"/>
   </g>
   <g id="patch_40">
    <path clip-path="url(#p70cef8964c)" d="M 207.6 174.1 
L 199.9 181.8 
L 215.3 181.8 
L 207.6 174.1 
" style="fill:#808080;stroke:#808080;stroke-linejoin:miter;"/>
   </g>
   <g id="patch_41">
    <path clip-path="url(#p70cef8964c)" d="M 207.6 158.7 
L 215.3 151 
L 199.9 151 
L 207.6 158.7 
" style="fill:#808080;stroke:#808080;stroke-linejoin:miter;"/>
   </g>
   <g id="patch_42">
    <path clip-path="url(#p70cef8964c)" d="M 207.6 158.7 
L 215.3 151 
L 215.3 166.4 
L 207.6 158.7 
" style="fill:#808080;stroke:#808080;stroke-linejoin:miter;"/>
   </g>
   <g id="patch_43">
    <path clip-path="url(#p70cef8964c)" d="M 207.6 158.7 
L 199.9 151 
L 199.9 166.4 
L 207.6 158.7 
" style="fill:#808080;stroke:#808080;stroke-linejoin:miter;"/>
   </g>
   <g id="patch_44">
    <path clip-path="url(#p70cef8964c)" d="M 207.6 158.7 
L 199.9 166.4 
L 215.3 166.4 
L 207.6 158.7 
" style="fill:#808080;stroke:#808080;stroke-linejoin:miter;"/>
   </g>
   <g id="patch_45">
    <path clip-path="url(#p70cef8964c)" d="M 223 158.7 
L 215.3 151 
L 215.3 166.4 
L 223 158.7 
" style="fill:#808080;stroke:#808080;stroke-linejoin:miter;"/>
   </g>
   <g id="patch_46">
    <path clip-path="url(#p70cef8964c)" d="M 223 158.7 
L 215.3 166.4 
L 230.7 166.4 
L 223 158.7 
" style="fill:#808080;stroke:#808080;stroke-linejoin:miter;"/>
   </g>
   <g id="patch_47">
    <path clip-path="url(#p70cef8964c)" d="M 161.4 235.7 
L 169.1 228 
L 153.7 228 
L 161.4 235.7 
" style="fill:#808080;stroke:#808080;stroke-linejoin:miter;"/>
   </g>
   <g id="patch_48">
    <path clip-path="url(#p70cef8964c)" d="M 161.4 235.7 
L 169.1 228 
L 169.1 243.4 
L 161.4 235.7 
" style="fill:#808080;stroke:#808080;stroke-linejoin:miter;"/>
   </g>
   <g id="patch_49">
    <path clip-path="url(#p70cef8964c)" d="M 161.4 235.7 
L 153.7 228 
L 153.7 243.4 
L 161.4 235.7 
" style="fill:#808080;stroke:#808080;stroke-linejoin:miter;"/>
   </g>
   <g id="patch_50">
    <path clip-path="url(#p70cef8964c)" d="M 161.4 235.7 
L 153.7 243.4 
L 169.1 243.4 
L 161.4 235.7 
" style="fill:#808080;stroke:#808080;stroke-linejoin:miter;"/>
   </g>
   <g id="patch_51">
    <path clip-path="url(#p70cef8964c)" d="M 161.4 220.3 
L 169.1 212.6 
L 153.7 212.6 
L 161.4 220.3 
" style="fill:#808080;stroke:#808080;stroke-linejoin:miter;"/>
   </g>
   <g id="patch_52">
    <path clip-path="url(#p70cef8964c)" d="M 161.4 220.3 
L 169.1 212.6 
L 169.1 228 
L 161.4 220.3 
" style="fill:#808080;stroke:#808080;stroke-linejoin:miter;"/>
   </g>
   <g id="patch_53">
    <path clip-path="url(#p70cef8964c)" d="M 161.4 220.3 
L 153.7 212.6 
L 153.7 228 
L 161.4 220.3 
" style="fill:#808080;stroke:#808080;stroke-linejoin:miter;"/>
   </g>
   <g id="patch_54">
    <path clip-path="url(#p70cef8964c)" d="M 161.4 220.3 
L 153.7 228 
L 169.1 228 
L 161.4 220.3 
" style="fill:#808080;stroke:#808080;stroke-linejoin:miter;"/>
   </g>
   <g id="patch_55">
    <path clip-path="url(#p70cef8964c)" d="M 176.8 235.7 
L 169.1 243.4 
L 184.5 243.4 
L 176.8 235.7 
" style="fill:#808080;stroke:#808080;stroke-linejoin:miter;"/>
   </g>
   <g id="patch_56">
    <path clip-path="url(#p70cef8964c)" d="M 176.8 235.7 
L 169.1 228 
L 169.1 243.4 
L 176.8 235.7 
" style="fill:#808080;stroke:#808080;stroke-linejoin:miter;"/>
   </g>
   <g id="patch_57">
    <path clip-path="url(#p70cef8964c)" d="M 238.4 158.7 
L 230.7 151 
L 230.7 166.4 
L 238.4 158.7 
" style="fill:#808080;stroke:#808080;stroke-linejoin:miter;"/>
   </g>
   <g id="patch_58">
    <path clip-path="url(#p70cef8964c)" d="M 238.4 158.7 
L 246.1 151 
L 230.7 151 
L 238.4 158.7 
" style="fill:#808080;stroke:#808080;stroke-linejoin:miter;"/>
   </g>
   <g id="patch_59">
    <path clip-path="url(#p70cef8964c)" d="M 238.4 158.7 
L 230.7 166.4 
L 246.1 166.4 
L 238.4 158.7 
" style="fill:#808080;stroke:#808080;stroke-linejoin:miter;"/>
   </g>
   <g id="patch_60">
    <path clip-path="url(#p70cef8964c)" d="M 238.4 158.7 
L 246.1 151 
L 246.1 166.4 
L 238.4 158.7 
" style="fill:#808080;stroke:#808080;stroke-linejoin:miter;"/>
   </g>
   <g id="patch_61">
    <path clip-path="url(#p70cef8964c)" d="M 223 158.7 
L 230.7 151 
L 230.7 166.4 
L 223 158.7 
" style="fill:#808080;stroke:#808080;stroke-linejoin:miter;"/>
   </g>
   <g id="patch_62">
    <path clip-path="url(#p70cef8964c)" d="M 223 158.7 
L 230.7 151 
L 215.3 151 
L 223 158.7 
" style="fill:#808080;stroke:#808080;stroke-linejoin:miter;"/>
   </g>
   <g id="patch_63">
    <path clip-path="url(#p70cef8964c)" d="M 207.6 189.5 
L 215.3 181.8 
L 215.3 197.2 
L 207.6 189.5 
" style="fill:#808080;stroke:#808080;stroke-linejoin:miter;"/>
   </g>
   <g id="patch_64">
    <path clip-path="url(#p70cef8964c)" d="M 207.6 189.5 
L 199.9 197.2 
L 215.3 197.2 
L 207.6 189.5 
" style="fill:#808080;stroke:#808080;stroke-linejoin:miter;"/>
   </g>
   <g id="patch_65">
    <path clip-path="url(#p70cef8964c)" d="M 207.6 189.5 
L 215.3 181.8 
L 199.9 181.8 
L 207.6 189.5 
" style="fill:#808080;stroke:#808080;stroke-linejoin:miter;"/>
   </g>
   <g id="patch_66">
    <path clip-path="url(#p70cef8964c)" d="M 207.6 189.5 
L 199.9 181.8 
L 199.9 197.2 
L 207.6 189.5 
" style="fill:#808080;stroke:#808080;stroke-linejoin:miter;"/>
   </g>
   <g id="patch_67">
    <path clip-path="url(#p70cef8964c)" d="M 207.6 204.9 
L 215.3 197.2 
L 215.3 212.6 
L 207.6 204.9 
" style="fill:#808080;stroke:#808080;stroke-linejoin:miter;"/>
   </g>
   <g id="patch_68">
    <path clip-path="url(#p70cef8964c)" d="M 207.6 204.9 
L 199.9 212.6 
L 215.3 212.6 
L 207.6 204.9 
" style="fill:#808080;stroke:#808080;stroke-linejoin:miter;"/>
   </g>
   <g id="patch_69">
    <path clip-path="url(#p70cef8964c)" d="M 207.6 204.9 
L 215.3 197.2 
L 199.9 197.2 
L 207.6 204.9 
" style="fill:#808080;stroke:#808080;stroke-linejoin:miter;"/>
   </g>
   <g id="patch_70">
    <path clip-path="url(#p70cef8964c)" d="M 207.6 204.9 
L 199.9 197.2 
L 199.9 212.6 
L 207.6 204.9 
" style="fill:#808080;stroke:#808080;stroke-linejoin:miter;"/>
   </g>
   <g id="patch_71">
    <path clip-path="url(#p70cef8964c)" d="M 223 204.9 
L 215.3 197.2 
L 215.3 212.6 
L 223 204.9 
" style="fill:#808080;stroke:#808080;stroke-linejoin:miter;"/>
   </g>
   <g id="patch_72">
    <path clip-path="url(#p70cef8964c)" d="M 223 204.9 
L 230.7 197.2 
L 215.3 197.2 
L 223 204.9 
" style="fill:#808080;stroke:#808080;stroke-linejoin:miter;"/>
   </g>
   <g id="patch_73">
    <path clip-path="url(#p70cef8964c)" d="M 207.6 220.3 
L 199.9 212.6 
L 199.9 228 
L 207.6 220.3 
" style="fill:#808080;stroke:#808080;stroke-linejoin:miter;"/>
   </g>
   <g id="patch_74">
    <path clip-path="url(#p70cef8964c)" d="M 207.6 220.3 
L 215.3 212.6 
L 199.9 212.6 
L 207.6 220.3 
" style="fill:#808080;stroke:#808080;stroke-linejoin:miter;"/>
   </g>
   <g id="patch_75">
    <path clip-path="url(#p70cef8964c)" d="M 130.6 158.7 
L 122.9 166.4 
L 138.3 166.4 
L 130.6 158.7 
" style="fill:#808080;stroke:#808080;stroke-linejoin:miter;"/>
   </g>
   <g id="patch_76">
    <path clip-path="url(#p70cef8964c)" d="M 130.6 158.7 
L 122.9 151 
L 122.9 166.4 
L 130.6 158.7 
" style="fill:#808080;stroke:#808080;stroke-linejoin:miter;"/>
   </g>
   <g id="patch_77">
    <path clip-path="url(#p70cef8964c)" d="M 130.6 158.7 
L 138.3 151 
L 138.3 166.4 
L 130.6 158.7 
" style="fill:#808080;stroke:#808080;stroke-linejoin:miter;"/>
   </g>
   <g id="patch_78">
    <path clip-path="url(#p70cef8964c)" d="M 130.6 158.7 
L 138.3 151 
L 122.9 151 
L 130.6 158.7 
" style="fill:#808080;stroke:#808080;stroke-linejoin:miter;"/>
   </g>
   <g id="patch_79">
    <path clip-path="url(#p70cef8964c)" d="M 130.6 174.1 
L 122.9 181.8 
L 138.3 181.8 
L 130.6 174.1 
" style="fill:#808080;stroke:#808080;stroke-linejoin:miter;"/>
   </g>
   <g id="patch_80">
    <path clip-path="url(#p70cef8964c)" d="M 130.6 174.1 
L 122.9 166.4 
L 122.9 181.8 
L 130.6 174.1 
" style="fill:#808080;stroke:#808080;stroke-linejoin:miter;"/>
   </g>
   <g id="patch_81">
    <path clip-path="url(#p70cef8964c)" d="M 130.6 174.1 
L 138.3 166.4 
L 138.3 181.8 
L 130.6 174.1 
" style="fill:#808080;stroke:#808080;stroke-linejoin:miter;"/>
   </g>
   <g id="patch_82">
    <path clip-path="url(#p70cef8964c)" d="M 130.6 174.1 
L 138.3 166.4 
L 122.9 166.4 
L 130.6 174.1 
" style="fill:#808080;stroke:#808080;stroke-linejoin:miter;"/>
   </g>
   <g id="patch_83">
    <path clip-path="url(#p70cef8964c)" d="M 130.6 189.5 
L 138.3 181.8 
L 122.9 181.8 
L 130.6 189.5 
" style="fill:#808080;stroke:#808080;stroke-linejoin:miter;"/>
   </g>
   <g id="patch_84">
    <path clip-path="url(#p70cef8964c)" d="M 130.6 189.5 
L 122.9 181.8 
L 122.9 197.2 
L 130.6 189.5 
" style="fill:#808080;stroke:#808080;stroke-linejoin:miter;"/>
   </g>
   <g id="patch_85">
    <path clip-path="url(#p70cef8964c)" d="M 238.4 189.5 
L 246.1 181.8 
L 230.7 181.8 
L 238.4 189.5 
" style="fill:#808080;stroke:#808080;stroke-linejoin:miter;"/>
   </g>
   <g id="patch_86">
    <path clip-path="url(#p70cef8964c)" d="M 238.4 189.5 
L 246.1 181.8 
L 246.1 197.2 
L 238.4 189.5 
" style="fill:#808080;stroke:#808080;stroke-linejoin:miter;"/>
   </g>
   <g id="patch_87">
    <path clip-path="url(#p70cef8964c)" d="M 238.4 189.5 
L 230.7 181.8 
L 230.7 197.2 
L 238.4 189.5 
" style="fill:#808080;stroke:#808080;stroke-linejoin:miter;"/>
   </g>
   <g id="patch_88">
    <path clip-path="url(#p70cef8964c)" d="M 238.4 189.5 
L 230.7 197.2 
L 246.1 197.2 
L 238.4 189.5 
" style="fill:#808080;stroke:#808080;stroke-linejoin:miter;"/>
   </g>
   <g id="patch_89">
    <path clip-path="url(#p70cef8964c)" d="M 238.4 174.1 
L 246.1 166.4 
L 230.7 166.4 
L 238.4 174.1 
" style="fill:#808080;stroke:#808080;stroke-linejoin:miter;"/>
   </g>
   <g id="patch_90">
    <path clip-path="url(#p70cef8964c)" d="M 238.4 174.1 
L 246.1 166.4 
L 246.1 181.8 
L 238.4 174.1 
" style="fill:#808080;stroke:#808080;stroke-linejoin:miter;"/>
   </g>
   <g id="patch_91">
    <path clip-path="url(#p70cef8964c)" d="M 238.4 174.1 
L 230.7 166.4 
L 230.7 181.8 
L 238.4 174.1 
" style="fill:#808080;stroke:#808080;stroke-linejoin:miter;"/>
   </g>
   <g id="patch_92">
    <path clip-path="url(#p70cef8964c)" d="M 238.4 174.1 
L 230.7 181.8 
L 246.1 181.8 
L 238.4 174.1 
" style="fill:#808080;stroke:#808080;stroke-linejoin:miter;"/>
   </g>
   <g id="patch_93">
    <path clip-path="url(#p70cef8964c)" d="M 192.2 235.7 
L 199.9 228 
L 184.5 228 
L 192.2 235.7 
" style="fill:#808080;stroke:#808080;stroke-linejoin:miter;"/>
   </g>
   <g id="patch_94">
    <path clip-path="url(#p70cef8964c)" d="M 192.2 235.7 
L 184.5 228 
L 184.5 243.4 
L 192.2 235.7 
" style="fill:#808080;stroke:#808080;stroke-linejoin:miter;"/>
   </g>
   <g id="patch_95">
    <path clip-path="url(#p70cef8964c)" d="M 176.8 235.7 
L 184.5 228 
L 169.1 228 
L 176.8 235.7 
" style="fill:#808080;stroke:#808080;stroke-linejoin:miter;"/>
   </g>
   <g id="patch_96">
    <path clip-path="url(#p70cef8964c)" d="M 176.8 235.7 
L 184.5 228 
L 184.5 243.4 
L 176.8 235.7 
" style="fill:#808080;stroke:#808080;stroke-linejoin:miter;"/>
   </g>
   <g id="patch_97">
    <path clip-path="url(#p70cef8964c)" d="M 207.6 143.3 
L 199.9 135.6 
L 199.9 151 
L 207.6 143.3 
" style="fill:#808080;stroke:#808080;stroke-linejoin:miter;"/>
   </g>
   <g id="patch_98">
    <path clip-path="url(#p70cef8964c)" d="M 207.6 143.3 
L 215.3 135.6 
L 199.9 135.6 
L 207.6 143.3 
" style="fill:#808080;stroke:#808080;stroke-linejoin:miter;"/>
   </g>
   <g id="patch_99">
    <path clip-path="url(#p70cef8964c)" d="M 207.6 143.3 
L 199.9 151 
L 215.3 151 
L 207.6 143.3 
" style="fill:#808080;stroke:#808080;stroke-linejoin:miter;"/>
   </g>
   <g id="patch_100">
    <path clip-path="url(#p70cef8964c)" d="M 207.6 143.3 
L 215.3 135.6 
L 215.3 151 
L 207.6 143.3 
" style="fill:#808080;stroke:#808080;stroke-linejoin:miter;"/>
   </g>
   <g id="patch_101">
    <path clip-path="url(#p70cef8964c)" d="M 207.6 127.9 
L 199.9 120.2 
L 199.9 135.6 
L 207.6 127.9 
" style="fill:#808080;stroke:#808080;stroke-linejoin:miter;"/>
   </g>
   <g id="patch_102">
    <path clip-path="url(#p70cef8964c)" d="M 207.6 127.9 
L 215.3 120.2 
L 199.9 120.2 
L 207.6 127.9 
" style="fill:#808080;stroke:#808080;stroke-linejoin:miter;"/>
   </g>
   <g id="patch_103">
    <path clip-path="url(#p70cef8964c)" d="M 207.6 127.9 
L 199.9 135.6 
L 215.3 135.6 
L 207.6 127.9 
" style="fill:#808080;stroke:#808080;stroke-linejoin:miter;"/>
   </g>
   <g id="patch_104">
    <path clip-path="url(#p70cef8964c)" d="M 207.6 127.9 
L 215.3 120.2 
L 215.3 135.6 
L 207.6 127.9 
" style="fill:#808080;stroke:#808080;stroke-linejoin:miter;"/>
   </g>
   <g id="patch_105">
    <path clip-path="url(#p70cef8964c)" d="M 192.2 127.9 
L 184.5 120.2 
L 184.5 135.6 
L 192.2 127.9 
" style="fill:#808080;stroke:#808080;stroke-linejoin:miter;"/>
   </g>
   <g id="patch_106">
    <path clip-path="url(#p70cef8964c)" d="M 192.2 127.9 
L 199.9 120.2 
L 184.5 120.2 
L 192.2 127.9 
" style="fill:#808080;stroke:#808080;stroke-linejoin:miter;"/>
   </g>
   <g id="patch_107">
    <path clip-path="url(#p70cef8964c)" d="M 192.2 127.9 
L 184.5 135.6 
L 199.9 135.6 
L 192.2 127.9 
" style="fill:#808080;stroke:#808080;stroke-linejoin:miter;"/>
   </g>
   <g id="patch_108">
    <path clip-path="url(#p70cef8964c)" d="M 192.2 127.9 
L 199.9 120.2 
L 199.9 135.6 
L 192.2 127.9 
" style="fill:#808080;stroke:#808080;stroke-linejoin:miter;"/>
   </g>
   <g id="patch_109">
    <path clip-path="url(#p70cef8964c)" d="M 176.8 204.9 
L 184.5 197.2 
L 169.1 197.2 
L 176.8 204.9 
" style="fill:#808080;stroke:#808080;stroke-linejoin:miter;"/>
   </g>
   <g id="patch_110">
    <path clip-path="url(#p70cef8964c)" d="M 176.8 204.9 
L 184.5 197.2 
L 184.5 212.6 
L 176.8 204.9 
" style="fill:#808080;stroke:#808080;stroke-linejoin:miter;"/>
   </g>
   <g id="patch_111">
    <path clip-path="url(#p70cef8964c)" d="M 176.8 204.9 
L 169.1 197.2 
L 169.1 212.6 
L 176.8 204.9 
" style="fill:#808080;stroke:#808080;stroke-linejoin:miter;"/>
   </g>
   <g id="patch_112">
    <path clip-path="url(#p70cef8964c)" d="M 176.8 204.9 
L 169.1 212.6 
L 184.5 212.6 
L 176.8 204.9 
" style="fill:#808080;stroke:#808080;stroke-linejoin:miter;"/>
   </g>
   <g id="patch_113">
    <path clip-path="url(#p70cef8964c)" d="M 192.2 204.9 
L 199.9 197.2 
L 184.5 197.2 
L 192.2 204.9 
" style="fill:#808080;stroke:#808080;stroke-linejoin:miter;"/>
   </g>
   <g id="patch_114">
    <path clip-path="url(#p70cef8964c)" d="M 192.2 204.9 
L 199.9 197.2 
L 199.9 212.6 
L 192.2 204.9 
" style="fill:#808080;stroke:#808080;stroke-linejoin:miter;"/>
   </g>
   <g id="patch_115">
    <path clip-path="url(#p70cef8964c)" d="M 192.2 204.9 
L 184.5 197.2 
L 184.5 212.6 
L 192.2 204.9 
" style="fill:#808080;stroke:#808080;stroke-linejoin:miter;"/>
   </g>
   <g id="patch_116">
    <path clip-path="url(#p70cef8964c)" d="M 192.2 204.9 
L 184.5 212.6 
L 199.9 212.6 
L 192.2 204.9 
" style="fill:#808080;stroke:#808080;stroke-linejoin:miter;"/>
   </g>
   <g id="patch_117">
    <path clip-path="url(#p70cef8964c)" d="M 161.4 204.9 
L 169.1 197.2 
L 153.7 197.2 
L 161.4 204.9 
" style="fill:#808080;stroke:#808080;stroke-linejoin:miter;"/>
   </g>
   <g id="patch_118">
    <path clip-path="url(#p70cef8964c)" d="M 161.4 204.9 
L 169.1 197.2 
L 169.1 212.6 
L 161.4 204.9 
" style="fill:#808080;stroke:#808080;stroke-linejoin:miter;"/>
   </g>
   <g id="patch_119">
    <path clip-path="url(#p70cef8964c)" d="M 161.4 204.9 
L 153.7 197.2 
L 153.7 212.6 
L 161.4 204.9 
" style="fill:#808080;stroke:#808080;stroke-linejoin:miter;"/>
   </g>
   <g id="patch_120">
    <path clip-path="url(#p70cef8964c)" d="M 161.4 204.9 
L 153.7 212.6 
L 169.1 212.6 
L 161.4 204.9 
" style="fill:#808080;stroke:#808080;stroke-linejoin:miter;"/>
   </g>
   <g id="patch_121">
    <path clip-path="url(#p70cef8964c)" d="M 161.4 189.5 
L 169.1 181.8 
L 153.7 181.8 
L 161.4 189.5 
" style="fill:#808080;stroke:#808080;stroke-linejoin:miter;"/>
   </g>
   <g id="patch_122">
    <path clip-path="url(#p70cef8964c)" d="M 161.4 189.5 
L 169.1 181.8 
L 169.1 197.2 
L 161.4 189.5 
" style="fill:#808080;stroke:#808080;stroke-linejoin:miter;"/>
   </g>
   <g id="patch_123">
    <path clip-path="url(#p70cef8964c)" d="M 161.4 189.5 
L 153.7 181.8 
L 153.7 197.2 
L 161.4 189.5 
" style="fill:#808080;stroke:#808080;stroke-linejoin:miter;"/>
   </g>
   <g id="patch_124">
    <path clip-path="url(#p70cef8964c)" d="M 161.4 189.5 
L 153.7 197.2 
L 169.1 197.2 
L 161.4 189.5 
" style="fill:#808080;stroke:#808080;stroke-linejoin:miter;"/>
   </g>
   <g id="patch_125">
    <path clip-path="url(#p70cef8964c)" d="M 176.8 189.5 
L 184.5 181.8 
L 169.1 181.8 
L 176.8 189.5 
" style="fill:#808080;stroke:#808080;stroke-linejoin:miter;"/>
   </g>
   <g id="patch_126">
    <path clip-path="url(#p70cef8964c)" d="M 176.8 189.5 
L 184.5 181.8 
L 184.5 197.2 
L 176.8 189.5 
" style="fill:#808080;stroke:#808080;stroke-linejoin:miter;"/>
   </g>
   <g id="patch_127">
    <path clip-path="url(#p70cef8964c)" d="M 176.8 189.5 
L 169.1 181.8 
L 169.1 197.2 
L 176.8 189.5 
" style="fill:#808080;stroke:#808080;stroke-linejoin:miter;"/>
   </g>
   <g id="patch_128">
    <path clip-path="url(#p70cef8964c)" d="M 176.8 189.5 
L 169.1 197.2 
L 184.5 197.2 
L 176.8 189.5 
" style="fill:#808080;stroke:#808080;stroke-linejoin:miter;"/>
   </g>
   <g id="patch_129">
    <path clip-path="url(#p70cef8964c)" d="M 192.2 189.5 
L 199.9 181.8 
L 184.5 181.8 
L 192.2 189.5 
" style="fill:#808080;stroke:#808080;stroke-linejoin:miter;"/>
   </g>
   <g id="patch_130">
    <path clip-path="url(#p70cef8964c)" d="M 192.2 189.5 
L 199.9 181.8 
L 199.9 197.2 
L 192.2 189.5 
" style="fill:#808080;stroke:#808080;stroke-linejoin:miter;"/>
   </g>
   <g id="patch_131">
    <path clip-path="url(#p70cef8964c)" d="M 192.2 189.5 
L 184.5 181.8 
L 184.5 197.2 
L 192.2 189.5 
" style="fill:#808080;stroke:#808080;stroke-linejoin:miter;"/>
   </g>
   <g id="patch_132">
    <path clip-path="url(#p70cef8964c)" d="M 192.2 189.5 
L 184.5 197.2 
L 199.9 197.2 
L 192.2 189.5 
" style="fill:#808080;stroke:#808080;stroke-linejoin:miter;"/>
   </g>
   <g id="patch_133">
    <path clip-path="url(#p70cef8964c)" d="M 238.4 204.9 
L 230.7 197.2 
L 230.7 212.6 
L 238.4 204.9 
" style="fill:#808080;stroke:#808080;stroke-linejoin:miter;"/>
   </g>
   <g id="patch_134">
    <path clip-path="url(#p70cef8964c)" d="M 238.4 204.9 
L 246.1 197.2 
L 230.7 197.2 
L 238.4 204.9 
" style="fill:#808080;stroke:#808080;stroke-linejoin:miter;"/>
   </g>
   <g id="patch_135">
    <path clip-path="url(#p70cef8964c)" d="M 238.4 204.9 
L 230.7 212.6 
L 246.1 212.6 
L 238.4 204.9 
" style="fill:#808080;stroke:#808080;stroke-linejoin:miter;"/>
   </g>
   <g id="patch_136">
    <path clip-path="url(#p70cef8964c)" d="M 238.4 204.9 
L 246.1 197.2 
L 246.1 212.6 
L 238.4 204.9 
" style="fill:#808080;stroke:#808080;stroke-linejoin:miter;"/>
   </g>
   <g id="patch_137">
    <path clip-path="url(#p70cef8964c)" d="M 223 204.9 
L 230.7 197.2 
L 230.7 212.6 
L 223 204.9 
" style="fill:#808080;stroke:#808080;stroke-linejoin:miter;"/>
   </g>
   <g id="patch_138">
    <path clip-path="url(#p70cef8964c)" d="M 223 204.9 
L 215.3 212.6 
L 230.7 212.6 
L 223 204.9 
" style="fill:#808080;stroke:#808080;stroke-linejoin:miter;"/>
   </g>
   <g id="patch_139">
    <path clip-path="url(#p70cef8964c)" d="M 192.2 235.7 
L 184.5 243.4 
L 199.9 243.4 
L 192.2 235.7 
" style="fill:#808080;stroke:#808080;stroke-linejoin:miter;"/>
   </g>
   <g id="patch_140">
    <path clip-path="url(#p70cef8964c)" d="M 192.2 235.7 
L 199.9 228 
L 199.9 243.4 
L 192.2 235.7 
" style="fill:#808080;stroke:#808080;stroke-linejoin:miter;"/>
   </g>
   <g id="patch_141">
    <path clip-path="url(#p70cef8964c)" d="M 207.6 235.7 
L 215.3 228 
L 199.9 228 
L 207.6 235.7 
" style="fill:#808080;stroke:#808080;stroke-linejoin:miter;"/>
   </g>
   <g id="patch_142">
    <path clip-path="url(#p70cef8964c)" d="M 207.6 235.7 
L 215.3 228 
L 215.3 243.4 
L 207.6 235.7 
" style="fill:#808080;stroke:#808080;stroke-linejoin:miter;"/>
   </g>
   <g id="patch_143">
    <path clip-path="url(#p70cef8964c)" d="M 207.6 235.7 
L 199.9 228 
L 199.9 243.4 
L 207.6 235.7 
" style="fill:#808080;stroke:#808080;stroke-linejoin:miter;"/>
   </g>
   <g id="patch_144">
    <path clip-path="url(#p70cef8964c)" d="M 207.6 235.7 
L 199.9 243.4 
L 215.3 243.4 
L 207.6 235.7 
" style="fill:#808080;stroke:#808080;stroke-linejoin:miter;"/>
   </g>
   <g id="patch_145">
    <path clip-path="url(#p70cef8964c)" d="M 207.6 220.3 
L 199.9 228 
L 215.3 228 
L 207.6 220.3 
" style="fill:#808080;stroke:#808080;stroke-linejoin:miter;"/>
   </g>
   <g id="patch_146">
    <path clip-path="url(#p70cef8964c)" d="M 207.6 220.3 
L 215.3 212.6 
L 215.3 228 
L 207.6 220.3 
" style="fill:#808080;stroke:#808080;stroke-linejoin:miter;"/>
   </g>
   <g id="patch_147">
    <path clip-path="url(#p70cef8964c)" d="M 192.2 158.7 
L 184.5 151 
L 184.5 166.4 
L 192.2 158.7 
" style="fill:#808080;stroke:#808080;stroke-linejoin:miter;"/>
   </g>
   <g id="patch_148">
    <path clip-path="url(#p70cef8964c)" d="M 192.2 158.7 
L 199.9 151 
L 184.5 151 
L 192.2 158.7 
" style="fill:#808080;stroke:#808080;stroke-linejoin:miter;"/>
   </g>
   <g id="patch_149">
    <path clip-path="url(#p70cef8964c)" d="M 192.2 158.7 
L 184.5 166.4 
L 199.9 166.4 
L 192.2 158.7 
" style="fill:#808080;stroke:#808080;stroke-linejoin:miter;"/>
   </g>
   <g id="patch_150">
    <path clip-path="url(#p70cef8964c)" d="M 192.2 158.7 
L 199.9 151 
L 199.9 166.4 
L 192.2 158.7 
" style="fill:#808080;stroke:#808080;stroke-linejoin:miter;"/>
   </g>
   <g id="patch_151">
    <path clip-path="url(#p70cef8964c)" d="M 176.8 158.7 
L 169.1 151 
L 169.1 166.4 
L 176.8 158.7 
" style="fill:#808080;stroke:#808080;stroke-linejoin:miter;"/>
   </g>
   <g id="patch_152">
    <path clip-path="url(#p70cef8964c)" d="M 176.8 158.7 
L 184.5 151 
L 169.1 151 
L 176.8 158.7 
" style="fill:#808080;stroke:#808080;stroke-linejoin:miter;"/>
   </g>
   <g id="patch_153">
    <path clip-path="url(#p70cef8964c)" d="M 176.8 158.7 
L 169.1 166.4 
L 184.5 166.4 
L 176.8 158.7 
" style="fill:#808080;stroke:#808080;stroke-linejoin:miter;"/>
   </g>
   <g id="patch_154">
    <path clip-path="url(#p70cef8964c)" d="M 176.8 158.7 
L 184.5 151 
L 184.5 166.4 
L 176.8 158.7 
" style="fill:#808080;stroke:#808080;stroke-linejoin:miter;"/>
   </g>
   <g id="patch_155">
    <path clip-path="url(#p70cef8964c)" d="M 176.8 174.1 
L 169.1 166.4 
L 169.1 181.8 
L 176.8 174.1 
" style="fill:#808080;stroke:#808080;stroke-linejoin:miter;"/>
   </g>
   <g id="patch_156">
    <path clip-path="url(#p70cef8964c)" d="M 176.8 174.1 
L 184.5 166.4 
L 169.1 166.4 
L 176.8 174.1 
" style="fill:#808080;stroke:#808080;stroke-linejoin:miter;"/>
   </g>
   <g id="patch_157">
    <path clip-path="url(#p70cef8964c)" d="M 176.8 174.1 
L 169.1 181.8 
L 184.5 181.8 
L 176.8 174.1 
" style="fill:#808080;stroke:#808080;stroke-linejoin:miter;"/>
   </g>
   <g id="patch_158">
    <path clip-path="url(#p70cef8964c)" d="M 176.8 174.1 
L 184.5 166.4 
L 184.5 181.8 
L 176.8 174.1 
" style="fill:#808080;stroke:#808080;stroke-linejoin:miter;"/>
   </g>
   <g id="patch_159">
    <path clip-path="url(#p70cef8964c)" d="M 161.4 174.1 
L 153.7 166.4 
L 153.7 181.8 
L 161.4 174.1 
" style="fill:#808080;stroke:#808080;stroke-linejoin:miter;"/>
   </g>
   <g id="patch_160">
    <path clip-path="url(#p70cef8964c)" d="M 161.4 174.1 
L 169.1 166.4 
L 153.7 166.4 
L 161.4 174.1 
" style="fill:#808080;stroke:#808080;stroke-linejoin:miter;"/>
   </g>
   <g id="patch_161">
    <path clip-path="url(#p70cef8964c)" d="M 161.4 174.1 
L 153.7 181.8 
L 169.1 181.8 
L 161.4 174.1 
" style="fill:#808080;stroke:#808080;stroke-linejoin:miter;"/>
   </g>
   <g id="patch_162">
    <path clip-path="url(#p70cef8964c)" d="M 161.4 174.1 
L 169.1 166.4 
L 169.1 181.8 
L 161.4 174.1 
" style="fill:#808080;stroke:#808080;stroke-linejoin:miter;"/>
   </g>
   <g id="matplotlib.axis_1">
    <g id="xtick_1">
     <g id="line2d_1">
      <defs>
       <path d="M 0 0 
L 0 3.5 
" id="m15abeaeb0f" style="stroke:#000000;stroke-width:0.8;"/>
      </defs>
      <g>
       <use style="stroke:#000000;stroke-width:0.8;" x="61.3" xlink:href="#m15abeaeb0f" y="320.4"/>
      </g>
     </g>
    </g>
    <g id="xtick_2">
     <g id="line2d_2">
      <g>
       <use style="stroke:#000000;stroke-width:0.8;" x="92.1" xlink:href="#m15abeaeb0f" y="320.4"/>
      </g>
     </g>
    </g>
    <g id="xtick_3">
     <g id="line2d_3">
      <g>
       <use style="stroke:#000000;stroke-width:0.8;" x="122.9" xlink:href="#m15abeaeb0f" y="320.4"/>
      </g>
     </g>
    </g>
    <g id="xtick_4">
     <g id="line2d_4">
      <g>
       <use style="stroke:#000000;stroke-width:0.8;" x="153.7" xlink:href="#m15abeaeb0f" y="320.4"/>
      </g>
     </g>
    </g>
    <g id="xtick_5">
     <g id="line2d_5">
      <g>
       <use style="stroke:#000000;stroke-width:0.8;" x="184.5" xlink:href="#m15abeaeb0f" y="320.4"/>
      </g>
     </g>
    </g>
    <g id="xtick_6">
     <g id="line2d_6">
      <g>
       <use style="stroke:#000000;stroke-width:0.8;" x="215.3" xlink:href="#m15abeaeb0f" y="320.4"/>
      </g>
     </g>
    </g>
    <g id="xtick_7">
     <g id="line2d_7">
      <g>
       <use style="stroke:#000000;stroke-width:0.8;" x="246.1" xlink:href="#m15abeaeb0f" y="320.4"/>
      </g>
     </g>
    </g>
    <g id="xtick_8">
     <g id="line2d_8">
      <g>
       <use style="stroke:#000000;stroke-width:0.8;" x="276.9" xlink:href="#m15abeaeb0f" y="320.4"/>
      </g>
     </g>
    </g>
    <g id="xtick_9">
     <g id="line2d_9">
      <g>
       <use style="stroke:#000000;stroke-width:0.8;" x="307.7" xlink:href="#m15abeaeb0f" y="320.4"/>
      </g>
     </g>
    </g>
   </g>
   <g id="matplotlib.axis_2"/>
   <g id="patch_163">
    <path d="M 45.9 320.4 
L 45.9 43.2 
" style="fill:none;stroke:#000000;stroke-linecap:square;stroke-linejoin:miter;stroke-width:0.8;"/>
   </g>
   <g id="patch_164">
    <path d="M 323.1 320.4 
L 323.1 43.2 
" style="fill:none;stroke:#000000;stroke-linecap:square;stroke-linejoin:miter;stroke-width:0.8;"/>
   </g>
   <g id="patch_165">
    <path d="M 45.9 320.4 
L 323.1 320.4 
" style="fill:none;stroke:#000000;stroke-linecap:square;stroke-linejoin:miter;stroke-width:0.8;"/>
   </g>
   <g id="patch_166">
    <path d="M 45.9 43.2 
L 323.1 43.2 
" style="fill:none;stroke:#000000;stroke-linecap:square;stroke-linejoin:miter;stroke-width:0.8;"/>
   </g>
   <g id="text_1">
    <!-- FridgeIQ -->
    <defs>
     <path d="M 9.8125 72.90625 
L 51.703125 72.90625 
L 51.703125 64.59375 
L 19.671875 64.59375 
L 19.671875 43.109375 
L 48.578125 43.109375 
L 48.578125 34.8125 
L 19.671875 34.8125 
L 19.671875 0 
L 9.8125 0 
z
" id="DejaVuSans-70"/>
     <path d="M 41.109375 46.296875 
Q 39.59375 47.171875 37.8125 47.578125 
Q 36.03125 48 33.890625 48 
Q 26.265625 48 22.1875 43.046875 
Q 18.109375 38.09375 18.109375 28.8125 
L 18.109375 0 
L 9.078125 0 
L 9.078125 54.6875 
L 18.109375 54.6875 
L 18.109375 46.1875 
Q 20.953125 51.171875 25.484375 53.578125 
Q 30.03125 56 36.53125 56 
Q 37.453125 56 38.578125 55.875 
Q 39.703125 55.765625 41.0625 55.515625 
z
" id="DejaVuSans-114"/>
     <path d="M 9.421875 54.6875 
L 18.40625 54.6875 
L 18.40625 0 
L 9.421875 0 
z
M 9.421875 75.984375 
L 18.40625 75.984375 
L 18.40625 64.59375 
L 9.421875 64.59375 
z
" id="DejaVuSans-105"/>
     <path d="M 45.40625 46.390625 
L 45.40625 75.984375 
L 54.390625 75.984375 
L 54.390625 0 
L 45.40625 0 
L 45.40625 8.203125 
Q 42.578125 3.328125 38.25 0.953125 
Q 33.9375 -1.421875 27.875 -1.421875 
Q 17.96875 -1.421875 11.734375 6.484375 
Q 5.515625 14.40625 5.515625 27.296875 
Q 5.515625 40.1875 11.734375 48.09375 
Q 17.96875 56 27.875 56 
Q 33.9375 56 38.25 53.625 
Q 42.578125 51.265625 45.40625 46.390625 
z
M 14.796875 27.296875 
Q 14.796875 17.390625 18.875 11.75 
Q 22.953125 6.109375 30.078125 6.109375 
Q 37.203125 6.109375 41.296875 11.75 
Q 45.40625 17.390625 45.40625 27.296875 
Q 45.40625 37.203125 41.296875 42.84375 
Q 37.203125 48.484375 30.078125 48.484375 
Q 22.953125 48.484375 18.875 42.84375 
Q 14.796875 37.203125 14.796875 27.296875 
z
" id="DejaVuSans-100"/>
     <path d="M 45.40625 27.984375 
Q 45.40625 37.75 41.375 43.109375 
Q 37.359375 48.484375 30.078125 48.484375 
Q 22.859375 48.484375 18.828125 43.109375 
Q 14.796875 37.75 14.796875 27.984375 
Q 14.796875 18.265625 18.828125 12.890625 
Q 22.859375 7.515625 30.078125 7.515625 
Q 37.359375 7.515625 41.375 12.890625 
Q 45.40625 18.265625 45.40625 27.984375 
z
M 54.390625 6.78125 
Q 54.390625 -7.171875 48.1875 -13.984375 
Q 42 -20.796875 29.203125 -20.796875 
Q 24.46875 -20.796875 20.265625 -20.09375 
Q 16.0625 -19.390625 12.109375 -17.921875 
L 12.109375 -9.1875 
Q 16.0625 -11.328125 19.921875 -12.34375 
Q 23.78125 -13.375 27.78125 -13.375 
Q 36.625 -13.375 41.015625 -8.765625 
Q 45.40625 -4.15625 45.40625 5.171875 
L 45.40625 9.625 
Q 42.625 4.78125 38.28125 2.390625 
Q 33.9375 0 27.875 0 
Q 17.828125 0 11.671875 7.65625 
Q 5.515625 15.328125 5.515625 27.984375 
Q 5.515625 40.671875 11.671875 48.328125 
Q 17.828125 56 27.875 56 
Q 33.9375 56 38.28125 53.609375 
Q 42.625 51.21875 45.40625 46.390625 
L 45.40625 54.6875 
L 54.390625 54.6875 
z
" id="DejaVuSans-103"/>
     <path d="M 56.203125 29.59375 
L 56.203125 25.203125 
L 14.890625 25.203125 
Q 15.484375 15.921875 20.484375 11.0625 
Q 25.484375 6.203125 34.421875 6.203125 
Q 39.59375 6.203125 44.453125 7.46875 
Q 49.3125 8.734375 54.109375 11.28125 
L 54.109375 2.78125 
Q 49.265625 0.734375 44.1875 -0.34375 
Q 39.109375 -1.421875 33.890625 -1.421875 
Q 20.796875 -1.421875 13.15625 6.1875 
Q 5.515625 13.8125 5.515625 26.8125 
Q 5.515625 40.234375 12.765625 48.109375 
Q 20.015625 56 32.328125 56 
Q 43.359375 56 49.78125 48.890625 
Q 56.203125 41.796875 56.203125 29.59375 
z
M 47.21875 32.234375 
Q 47.125 39.59375 43.09375 43.984375 
Q 39.0625 48.390625 32.421875 48.390625 
Q 24.90625 48.390625 20.390625 44.140625 
Q 15.875 39.890625 15.1875 32.171875 
z
" id="DejaVuSans-101"/>
     <path d="M 9.8125 72.90625 
L 19.671875 72.90625 
L 19.671875 0 
L 9.8125 0 
z
" id="DejaVuSans-73"/>
     <path d="M 39.40625 66.21875 
Q 28.65625 66.21875 22.328125 58.203125 
Q 16.015625 50.203125 16.015625 36.375 
Q 16.015625 22.609375 22.328125 14.59375 
Q 28.65625 6.59375 39.40625 6.59375 
Q 50.140625 6.59375 56.421875 14.59375 
Q 62.703125 22.609375 62.703125 36.375 
Q 62.703125 50.203125 56.421875 58.203125 
Q 50.140625 66.21875 39.40625 66.21875 
z
M 53.21875 1.3125 
L 66.21875 -12.890625 
L 54.296875 -12.890625 
L 43.5 -1.21875 
Q 41.890625 -1.3125 41.03125 -1.359375 
Q 40.1875 -1.421875 39.40625 -1.421875 
Q 24.03125 -1.421875 14.8125 8.859375 
Q 5.609375 19.140625 5.609375 36.375 
Q 5.609375 53.65625 14.8125 63.9375 
Q 24.03125 74.21875 39.40625 74.21875 
Q 54.734375 74.21875 63.90625 63.9375 
Q 73.09375 53.65625 73.09375 36.375 
Q 73.09375 23.6875 67.984375 14.640625 
Q 62.890625 5.609375 53.21875 1.3125 
z
" id="DejaVuSans-81"/>
    </defs>
    <g transform="translate(159.119063 37.2)scale(0.12 -0.12)">
     <use xlink:href="#DejaVuSans-70"/>
     <use x="57.410156" xlink:href="#DejaVuSans-114"/>
     <use x="98.523438" xlink:href="#DejaVuSans-105"/>
     <use x="126.306641" xlink:href="#DejaVuSans-100"/>
     <use x="189.783203" xlink:href="#DejaVuSans-103"/>
     <use x="253.259766" xlink:href="#DejaVuSans-101"/>
     <use x="314.783203" xlink:href="#DejaVuSans-73"/>
     <use x="344.275391" xlink:href="#DejaVuSans-81"/>
    </g>
   </g>
  </g>
 </g>
 <defs>
  <clipPath id="p70cef8964c">
   <rect height="277.2" width="277.2" x="45.9" y="43.2"/>
  </clipPath>
 </defs>
</svg>
